<svg width="30" height="30" viewBox="0 0 30 30" fill="none" xmlns="http://www.w3.org/2000/svg">
<path d="M26.1899 3.8089C24.4429 2.062 21.6106 2.06209 19.8639 3.80909L4.92629 18.7484C4.41837 19.2564 4.06137 19.8952 3.895 20.5941L2.52551 26.3459C2.45011 26.6626 2.5444 26.9957 2.7746 27.226C3.00481 27.4561 3.33796 27.5505 3.65466 27.475L9.40622 26.1056C10.1052 25.9392 10.7443 25.582 11.2524 25.0739L23.7494 12.5755C24.5971 13.4302 24.595 14.8105 23.7429 15.6626L21.5136 17.8919C21.1475 18.258 21.1475 18.8515 21.5136 19.2176C21.8797 19.5837 22.4732 19.5837 22.8394 19.2176L25.0687 16.9884C26.653 15.4041 26.6552 12.8366 25.0751 11.2496L26.19 10.1345C27.9366 8.38768 27.9366 5.55566 26.1899 3.8089ZM21.1897 5.13484C22.2042 4.12014 23.8494 4.12009 24.864 5.13472C25.8785 6.14927 25.8786 7.79417 24.8641 8.8088L9.92649 23.7481C9.6638 24.0109 9.33335 24.1955 8.97194 24.2816L4.70239 25.2981L5.71901 21.0284C5.80502 20.6671 5.9896 20.3367 6.25219 20.0741L21.1897 5.13484Z" fill="#212121"/>
</svg>
