<svg width="30" height="30" viewBox="0 0 30 30" fill="none" xmlns="http://www.w3.org/2000/svg">
<path d="M3.375 0C1.51104 0 0 1.51104 0 3.375V26.625C0 28.4889 1.51104 30 3.375 30H10.0026C9.84063 29.659 9.75 29.2776 9.75 28.875C9.75 28.4724 9.84063 28.091 10.0026 27.75H3.375C2.75368 27.75 2.25 27.2463 2.25 26.625V3.375C2.25 2.75368 2.75368 2.25 3.375 2.25H11.625C12.2463 2.25 12.75 2.75368 12.75 3.375V6H15V3.375C15 1.51104 13.4889 0 11.625 0H3.375ZM7.5 10.875C7.5 9.01104 9.01104 7.5 10.875 7.5H26.625C28.4889 7.5 30 9.01104 30 10.875V20.625C30 22.4889 28.4889 24 26.625 24H23.25V27.75H25.125C25.7463 27.75 26.25 28.2537 26.25 28.875C26.25 29.4963 25.7463 30 25.125 30H12.375C11.7537 30 11.25 29.4963 11.25 28.875C11.25 28.2537 11.7537 27.75 12.375 27.75H14.25V24H10.875C9.01104 24 7.5 22.4889 7.5 20.625V10.875ZM21 27.75V24H16.5V27.75H21ZM26.625 21.75C27.2463 21.75 27.75 21.2463 27.75 20.625V10.875C27.75 10.2537 27.2463 9.75 26.625 9.75H10.875C10.2537 9.75 9.75 10.2537 9.75 10.875V20.625C9.75 21.2463 10.2537 21.75 10.875 21.75H26.625Z" fill="#212121"/>
</svg>
