<svg width="25" height="23" viewBox="0 0 25 23" fill="none" xmlns="http://www.w3.org/2000/svg">
<path d="M0 1.83022C0 0.967203 0.55965 0.267578 1.25 0.267578H23.75C24.4404 0.267578 25 0.967203 25 1.83022C25 2.69323 24.4404 3.39286 23.75 3.39286H1.25C0.55965 3.39286 0 2.69323 0 1.83022ZM0 20.5819C0 19.7188 0.55965 19.0192 1.25 19.0192H23.75C24.4404 19.0192 25 19.7188 25 20.5819C25 21.4449 24.4404 22.1445 23.75 22.1445H1.25C0.55965 22.1445 0 21.4449 0 20.5819ZM1.25 9.64341C0.55965 9.64341 0 10.343 0 11.206C0 12.0691 0.55965 12.7687 1.25 12.7687H23.75C24.4404 12.7687 25 12.0691 25 11.206C25 10.343 24.4404 9.64341 23.75 9.64341H1.25Z" fill="white"/>
</svg>
