<svg width="30" height="30" viewBox="0 0 30 30" fill="none" xmlns="http://www.w3.org/2000/svg">
<path d="M13.6819 2.5589L13.6881 2.56804C14.1192 2.52306 14.557 2.5 15.0001 2.5C21.9037 2.5 27.5001 8.09644 27.5001 15C27.5001 21.9035 21.9037 27.5 15.0001 27.5C10.9885 27.5 7.4183 25.6102 5.13107 22.6724L5.12786 22.6717L5.12846 22.6691C3.48117 20.5518 2.50012 17.8904 2.50012 15C2.50012 8.54755 7.38907 3.23696 13.6647 2.57049L13.6819 2.5589ZM15.0001 4.375C14.9336 4.375 14.8672 4.37561 14.801 4.37683C14.9541 4.68208 15.1187 5.04287 15.2681 5.43974C15.7017 6.5919 16.1004 8.29113 15.393 9.79734C14.7397 11.1883 13.6121 11.5482 12.7804 11.7631L12.6745 11.7904C11.8541 12.0019 11.5386 12.0833 11.3085 12.4326C11.0973 12.7533 11.1293 13.1605 11.3852 13.9946C11.4032 14.0532 11.4227 14.1152 11.443 14.1799C11.5444 14.5029 11.6666 14.8923 11.7303 15.2584C11.8095 15.7139 11.8319 16.293 11.5402 16.8527C11.2509 17.408 10.8673 17.7865 10.4141 18.0334C9.98843 18.2654 9.54755 18.3532 9.21768 18.4117L9.10147 18.4323C8.45788 18.5455 8.15002 18.5998 7.85018 18.921C7.61742 19.1702 7.46721 19.6106 7.37947 20.2686C7.34376 20.5364 7.3223 20.8019 7.3001 21.0764L7.28817 21.2228C7.2632 21.5256 7.23222 21.8743 7.16412 22.1735L7.16375 22.1753C9.10622 24.2955 11.8979 25.625 15.0001 25.625C16.9714 25.625 18.8172 25.0881 20.3996 24.1528C20.2766 24.0275 20.1431 23.8805 20.0115 23.7148C19.5871 23.1805 19.0305 22.2601 19.2236 21.1737C19.3164 20.6514 19.5964 20.214 19.867 19.8786C20.1427 19.5369 20.4755 19.2211 20.7665 18.9532C20.8356 18.8896 20.9019 18.8291 20.9654 18.7711C21.1881 18.5678 21.3774 18.3949 21.5394 18.2253C21.7554 17.9989 21.8024 17.8969 21.8049 17.8916C21.8897 17.6108 21.7856 17.4117 21.6722 17.324C21.6152 17.28 21.5389 17.248 21.435 17.2472C21.3302 17.2464 21.1604 17.2777 20.9336 17.4215C20.6715 17.5875 20.2901 17.69 19.8889 17.5285C19.5546 17.3939 19.3695 17.1363 19.2806 16.9893C19.1007 16.6919 18.9996 16.3065 18.9339 16.0239C18.8831 15.8059 18.8346 15.5584 18.7905 15.3326C18.7727 15.2422 18.7557 15.1552 18.7395 15.0751C18.6764 14.7629 18.6231 14.5398 18.5719 14.4011C18.5719 14.4011 18.5649 14.3841 18.5479 14.3531C18.5295 14.3194 18.5035 14.2762 18.4679 14.2221C18.3954 14.1117 18.3006 13.9821 18.1832 13.8266C18.1406 13.7701 18.0947 13.71 18.0467 13.647C17.8454 13.383 17.6054 13.0685 17.4014 12.7575C17.1566 12.3845 16.88 11.8971 16.7925 11.3773C16.7461 11.1018 16.7469 10.7837 16.8612 10.4605C16.9782 10.1295 17.192 9.85736 17.4694 9.64925C18.0737 9.19604 18.9614 8.18354 19.7486 7.20045C20.1081 6.75154 20.4294 6.33095 20.6685 6.01172C19.0281 4.97501 17.0841 4.375 15.0001 4.375ZM22.1594 7.14901C21.9124 7.47833 21.5824 7.91017 21.2121 8.37246C20.46 9.31171 19.463 10.4785 18.6502 11.1067C18.682 11.2303 18.7756 11.4341 18.969 11.7287C19.1329 11.9785 19.3201 12.2243 19.5177 12.4837C19.571 12.5535 19.6254 12.6249 19.6797 12.697C19.8952 12.9825 20.1939 13.3809 20.3309 13.7517C20.4386 14.0436 20.516 14.4 20.5774 14.7035C20.599 14.8106 20.619 14.913 20.6382 15.0115C20.6701 15.1745 20.7 15.327 20.7317 15.4733C21.484 15.2586 22.234 15.3882 22.8192 15.8407C23.58 16.429 23.8976 17.4486 23.5997 18.434C23.4631 18.8861 23.1447 19.2589 22.8957 19.5199C22.6845 19.7411 22.4312 19.9721 22.2016 20.1815C22.1449 20.2334 22.0891 20.2843 22.0362 20.3329C21.7487 20.5975 21.507 20.832 21.3264 21.0559C21.1406 21.2861 21.0824 21.43 21.0696 21.5018C21.0211 21.7749 21.1541 22.1386 21.4797 22.5485C21.6274 22.7344 21.7846 22.891 21.9066 23.0019C21.921 23.0149 21.9349 23.0273 21.948 23.0387C24.2001 21.0905 25.6251 18.2116 25.6251 15C25.6251 11.89 24.289 9.09208 22.1594 7.14901ZM4.37512 15C4.37512 16.748 4.79721 18.3973 5.54502 19.8517C5.65112 19.155 5.87255 18.2917 6.47955 17.6415C7.22932 16.8383 8.14905 16.6876 8.72721 16.593C8.78506 16.5835 8.83981 16.5745 8.8903 16.5656C9.19991 16.5106 9.37896 16.4621 9.5171 16.3869C9.62773 16.3266 9.75187 16.2272 9.87746 15.9862C9.89603 15.9506 9.93035 15.8519 9.88302 15.5798C9.8425 15.3469 9.76652 15.1032 9.66708 14.7845C9.64363 14.7092 9.61864 14.6291 9.59274 14.5446C9.36129 13.7905 8.99137 12.5419 9.74266 11.4012C10.3947 10.4113 11.4435 10.1582 12.1092 9.99758C12.1814 9.98015 12.2491 9.96382 12.3113 9.94775C13.015 9.76595 13.4155 9.59742 13.6959 9.00033C14.0651 8.21409 13.9062 7.14415 13.5132 6.10024C13.327 5.60526 13.1084 5.17031 12.9352 4.85816C12.8809 4.76016 12.8315 4.67519 12.7897 4.60524C7.98258 5.62241 4.37512 9.88991 4.37512 15Z" fill="#212121"/>
</svg>
