<svg width="30" height="30" viewBox="0 0 30 30" fill="none" xmlns="http://www.w3.org/2000/svg">
<path d="M13.4848 3.87769C14.1038 2.62346 15.8923 2.62345 16.5113 3.87769L19.4588 9.84983L26.0494 10.8075C27.4335 11.0086 27.9861 12.7096 26.9846 13.6859L22.2155 18.3345L23.3414 24.8986C23.5778 26.2771 22.1309 27.3284 20.8929 26.6775L14.998 23.5784L9.10315 26.6775C7.86516 27.3284 6.41824 26.2771 6.65468 24.8986L7.7805 18.3345L3.01145 13.6859C2.00989 12.7096 2.56256 11.0086 3.94669 10.8075L10.5374 9.84983L13.4848 3.87769ZM14.998 5.04817L12.1751 10.768C11.9293 11.2661 11.4542 11.6113 10.9045 11.6912L4.59228 12.6084L9.15985 17.0607C9.55758 17.4484 9.73906 18.0069 9.64518 18.5544L8.56691 24.8411L14.2128 21.8729C14.7044 21.6144 15.2916 21.6144 15.7833 21.8729L21.4291 24.8411L20.3509 18.5544C20.257 18.0069 20.4385 17.4484 20.8361 17.0607L25.4038 12.6084L19.0915 11.6912C18.5419 11.6113 18.0668 11.2661 17.821 10.768L14.998 5.04817Z" fill="#212121"/>
</svg>
