<svg width="33" height="33" viewBox="0 0 33 33" fill="none" xmlns="http://www.w3.org/2000/svg">
<path d="M4.50696 19.25C4.50696 12.7952 9.73963 7.5625 16.1945 7.5625C22.6493 7.5625 27.882 12.7952 27.882 19.25C27.882 25.7048 22.6493 30.9375 16.1945 30.9375C9.73963 30.9375 4.50696 25.7048 4.50696 19.25ZM16.1945 5.5C8.60054 5.5 2.44446 11.6561 2.44446 19.25C2.44446 26.8438 8.60054 33 16.1945 33C23.7883 33 29.9445 26.8438 29.9445 19.25C29.9445 11.6561 23.7883 5.5 16.1945 5.5ZM16.185 11.8914C16.1168 11.3882 15.685 11 15.1632 11C14.594 11 14.132 11.462 14.132 12.0312V20.2812L14.1414 20.4211C14.2096 20.9243 14.6414 21.3125 15.1632 21.3125H20.6632L20.803 21.303C21.3063 21.2348 21.6945 20.8031 21.6945 20.2812C21.6945 19.712 21.2325 19.25 20.6632 19.25H16.1945V12.0312L16.185 11.8914Z" fill="#212121"/>
</svg>
