<svg width="33" height="33" viewBox="0 0 33 33" fill="none" xmlns="http://www.w3.org/2000/svg">
<g clip-path="url(#clip0_91_983)">
<path d="M3.7125 0C1.66214 0 0 1.66214 0 3.7125V29.2875C0 31.3378 1.66214 33 3.7125 33H11.0029C10.8247 32.625 10.725 32.2054 10.725 31.7625C10.725 31.3196 10.8247 30.9 11.0029 30.525H3.7125C3.02905 30.525 2.475 29.9709 2.475 29.2875V3.7125C2.475 3.02905 3.02905 2.475 3.7125 2.475H12.7875C13.4709 2.475 14.025 3.02905 14.025 3.7125V6.6H16.5V3.7125C16.5 1.66214 14.8378 0 12.7875 0H3.7125ZM8.25 11.9625C8.25 9.91214 9.91214 8.25 11.9625 8.25H29.2875C31.3378 8.25 33 9.91214 33 11.9625V22.6875C33 24.7378 31.3378 26.4 29.2875 26.4H25.575V30.525H27.6375C28.3209 30.525 28.875 31.0791 28.875 31.7625C28.875 32.4459 28.3209 33 27.6375 33H13.6125C12.9291 33 12.375 32.4459 12.375 31.7625C12.375 31.0791 12.9291 30.525 13.6125 30.525H15.675V26.4H11.9625C9.91214 26.4 8.25 24.7378 8.25 22.6875V11.9625ZM23.1 30.525V26.4H18.15V30.525H23.1ZM29.2875 23.925C29.9709 23.925 30.525 23.3709 30.525 22.6875V11.9625C30.525 11.2791 29.9709 10.725 29.2875 10.725H11.9625C11.2791 10.725 10.725 11.2791 10.725 11.9625V22.6875C10.725 23.3709 11.2791 23.925 11.9625 23.925H29.2875Z" fill="black"/>
</g>
<defs>
<clipPath id="clip0_91_983">
<rect width="33" height="33" fill="white"/>
</clipPath>
</defs>
</svg>
