<svg width="33" height="33" viewBox="0 0 33 33" fill="none" xmlns="http://www.w3.org/2000/svg">
<path d="M13.1472 4.125C7.45173 4.125 2.83467 8.74206 2.83467 14.4375C2.83467 15.9952 3.18072 17.4746 3.80082 18.8009C3.45152 20.1732 3.06127 21.7033 2.80499 22.7077C2.48458 23.9635 3.61542 25.1058 4.87264 24.8036C5.90419 24.5557 7.48961 24.1751 8.9024 23.8384C10.1981 24.4243 11.6358 24.75 13.1472 24.75C18.8426 24.75 23.4597 20.1329 23.4597 14.4375C23.4597 8.74206 18.8426 4.125 13.1472 4.125ZM4.89717 14.4375C4.89717 9.88115 8.59082 6.1875 13.1472 6.1875C17.7035 6.1875 21.3972 9.88115 21.3972 14.4375C21.3972 18.9938 17.7035 22.6875 13.1472 22.6875C11.8262 22.6875 10.5804 22.3778 9.47596 21.828L9.14127 21.6613L8.77756 21.748C7.50881 22.0499 6.04297 22.4014 4.94439 22.6652C5.21767 21.594 5.57953 20.1745 5.89326 18.9416L5.98976 18.5622L5.81031 18.2143C5.22699 17.0838 4.89717 15.8007 4.89717 14.4375ZM20.0222 28.8751C17.3143 28.8751 14.8501 27.8314 13.0101 26.1243C13.0558 26.1249 13.1015 26.1251 13.1472 26.1251C14.1344 26.1251 15.0931 26.0026 16.0087 25.7722C17.1967 26.4349 18.5654 26.8126 20.0222 26.8126C21.3432 26.8126 22.5889 26.5028 23.6934 25.953L24.0281 25.7863L24.3918 25.873C25.659 26.1746 27.0938 26.4859 28.1582 26.711C27.9176 25.6791 27.5894 24.2978 27.2761 23.0666L27.1796 22.6874L27.3591 22.3395C27.9423 21.209 28.2722 19.9258 28.2722 18.5626C28.2722 15.6548 26.768 13.0985 24.4951 11.6292C24.2499 10.6347 23.8773 9.69039 23.3956 8.81446C27.4344 10.2119 30.3347 14.0485 30.3347 18.5626C30.3347 20.1206 29.9885 21.6004 29.3681 22.9269C29.7161 24.3129 30.0684 25.8142 30.2918 26.7813C30.5728 27.9982 29.5012 29.0995 28.2741 28.8431C27.2742 28.6341 25.7033 28.2989 24.2681 27.963C22.9721 28.5491 21.534 28.8751 20.0222 28.8751Z" fill="#212121"/>
</svg>
