<svg width="30" height="30" viewBox="0 0 30 30" fill="none" xmlns="http://www.w3.org/2000/svg">
<path d="M24.1004 5.89958C23.7343 5.53347 23.1407 5.53347 22.7746 5.89958C22.4085 6.2657 22.4085 6.8593 22.7746 7.22541L24.2991 8.74998H24.0625C19.165 8.74998 16.0336 11.6279 13.1974 14.2346L13.1156 14.3096C10.1924 16.996 7.5554 19.375 3.4375 19.375C2.91974 19.375 2.5 19.7947 2.5 20.3125C2.5 20.8302 2.91974 21.25 3.4375 21.25C8.33504 21.25 11.4664 18.3721 14.3026 15.7654L14.3844 15.6902C17.3076 13.004 19.9446 10.625 24.0625 10.625H24.2991L22.7746 12.1496C22.4085 12.5157 22.4085 13.1092 22.7746 13.4754C23.1407 13.8415 23.7343 13.8415 24.1004 13.4754L27.2254 10.3504C27.4013 10.1746 27.5 9.93612 27.5 9.68748C27.5 9.43885 27.4013 9.20038 27.2254 9.02457L24.1004 5.89958ZM3.4375 8.74978C7.49749 8.74978 10.3437 10.7275 12.8142 12.889C12.6865 13.006 12.5602 13.1222 12.4353 13.2371L12.2699 13.3891C11.9808 13.6549 11.698 13.9136 11.4199 14.1645C9.10408 12.1641 6.74991 10.6248 3.4375 10.6248C2.91974 10.6248 2.5 10.2051 2.5 9.68728C2.5 9.16952 2.91974 8.74978 3.4375 8.74978ZM24.0625 21.2497C20.0026 21.2497 17.1564 19.2721 14.6859 17.1106C14.8134 16.9939 14.9394 16.8779 15.0641 16.7631L15.2301 16.6106C15.5192 16.3449 15.802 16.086 16.0802 15.8351C18.396 17.8355 20.7501 19.3747 24.0625 19.3747H24.2991L22.7746 17.8502C22.4085 17.4841 22.4085 16.8905 22.7746 16.5244C23.1407 16.1582 23.7343 16.1582 24.1004 16.5244L27.2254 19.6494C27.4013 19.8252 27.5 20.0636 27.5 20.3122C27.5 20.5609 27.4013 20.7994 27.2254 20.9752L24.1004 24.1002C23.7343 24.4664 23.1407 24.4664 22.7746 24.1002C22.4085 23.7341 22.4085 23.1405 22.7746 22.7744L24.2991 21.2497H24.0625Z" fill="#212121"/>
</svg>
