<svg width="33" height="33" viewBox="0 0 33 33" fill="none" xmlns="http://www.w3.org/2000/svg">
<g clip-path="url(#clip0_91_981)">
<path d="M5.77471 7.76471C5.77471 5.0845 7.62145 2.91176 9.89951 2.91176C12.1776 2.91176 14.0243 5.0845 14.0243 7.76471C14.0243 10.4449 12.1776 12.6176 9.89951 12.6176C7.62145 12.6176 5.77471 10.4449 5.77471 7.76471ZM9.89951 0C6.25461 0 3.29984 3.47638 3.29984 7.76471C3.29984 12.053 6.25461 15.5294 9.89951 15.5294C13.5443 15.5294 16.4992 12.053 16.4992 7.76471C16.4992 3.47638 13.5443 0 9.89951 0ZM22.2739 9.70588C22.2739 8.09775 23.382 6.79412 24.7488 6.79412C26.1156 6.79412 27.2236 8.09775 27.2236 9.70588C27.2236 11.314 26.1156 12.6176 24.7488 12.6176C23.382 12.6176 22.2739 11.314 22.2739 9.70588ZM24.7488 3.88235C22.015 3.88235 19.799 6.48964 19.799 9.70588C19.799 12.9222 22.015 15.5294 24.7488 15.5294C27.4825 15.5294 29.6985 12.9222 29.6985 9.70588C29.6985 6.48964 27.4825 3.88235 24.7488 3.88235ZM20.2089 29.1908C21.3676 29.745 22.8542 30.0882 24.7504 30.0882C28.516 30.0882 30.6665 28.7347 31.8399 27.0641C32.4093 26.2532 32.6991 25.4347 32.8461 24.8073C32.9193 24.494 32.9578 24.2259 32.9777 24.0259C32.9878 23.9258 32.9934 23.8417 32.9964 23.7769C32.9979 23.7445 32.9988 23.7167 32.9993 23.6938L32.9998 23.6635L33 23.6511V23.6457V23.6408C33 21.3052 31.3907 19.4118 29.4055 19.4118H20.0953C20.05 19.4118 20.0049 19.4127 19.9602 19.4147C20.6101 20.2127 21.0838 21.2112 21.307 22.3235H29.4055C30.0186 22.3235 30.5165 22.9032 30.525 23.622C30.5245 23.633 30.523 23.6542 30.52 23.6845C30.5126 23.7575 30.4963 23.8794 30.46 24.0341C30.3877 24.3427 30.2392 24.7719 29.9321 25.2091C29.3525 26.0343 27.997 27.1765 24.7504 27.1765C23.1333 27.1765 21.9855 26.8931 21.1688 26.5068C20.9921 27.2834 20.6985 28.2204 20.2089 29.1908ZM3.71231 19.4118C1.66206 19.4118 0 21.3673 0 23.7794V24.2668V24.269L1.65216e-05 24.274L0.000115651 24.2863L0.000577469 24.3185C0.00105594 24.3435 0.00193039 24.3755 0.00346481 24.4144C0.00653366 24.4916 0.0122917 24.5957 0.0230657 24.7224C0.0445641 24.9754 0.0863402 25.3226 0.167714 25.733C0.329901 26.5506 0.654258 27.6431 1.30645 28.7393C2.65746 31.0101 5.23318 33 9.89951 33C14.5658 33 17.1415 31.0101 18.4926 28.7393C19.1448 27.6431 19.4692 26.5506 19.6312 25.733C19.7127 25.3226 19.7545 24.9754 19.7759 24.7224C19.7868 24.5957 19.7924 24.4916 19.7955 24.4144C19.797 24.3755 19.798 24.3435 19.7984 24.3185L19.7988 24.2863L19.799 24.274V24.269V23.7794C19.799 21.3673 18.1369 19.4118 16.0867 19.4118H3.71231ZM2.47565 24.2787L2.47488 24.2544V23.7794C2.47488 22.9754 3.0289 22.3235 3.71231 22.3235H16.0867C16.7701 22.3235 17.3241 22.9754 17.3241 23.7794V24.2542L17.3233 24.2787C17.3222 24.3078 17.3195 24.3604 17.3134 24.4326C17.301 24.5776 17.2751 24.7991 17.2212 25.0713C17.1126 25.6185 16.8957 26.3458 16.465 27.0695C15.6506 28.4384 13.8953 30.0882 9.89951 30.0882C5.90377 30.0882 4.14845 28.4384 3.33394 27.0695C2.90338 26.3458 2.68636 25.6185 2.57785 25.0713C2.52388 24.7991 2.49798 24.5776 2.48565 24.4326C2.47951 24.3604 2.47681 24.3078 2.47565 24.2787Z" fill="black"/>
</g>
<defs>
<clipPath id="clip0_91_981">
<rect width="33" height="33" fill="white"/>
</clipPath>
</defs>
</svg>
