<svg width="33" height="33" viewBox="0 0 33 33" fill="none" xmlns="http://www.w3.org/2000/svg">
<g clip-path="url(#clip0_91_985)">
<path d="M16.17 0C25.4648 0 33 7.53441 33 16.8286C33 26.1227 25.4648 33.6572 16.17 33.6572C13.4464 33.6572 10.8144 33.0086 8.44981 31.7858L2.01095 33.5819C0.891894 33.8944 -0.268602 33.2407 -0.581085 32.1217C-0.684505 31.7515 -0.684454 31.3599 -0.581017 30.99L1.21585 24.5566C-0.00977355 22.1902 -0.660034 19.5553 -0.660034 16.8286C-0.660034 7.53441 6.87501 0 16.17 0ZM16.17 2.52429C8.26926 2.52429 1.86447 8.92854 1.86447 16.8286C1.86447 19.3017 2.49184 21.6809 3.67038 23.7914L3.92392 24.2453L2.05121 30.9501L8.76064 29.0784L9.21428 29.3314C11.323 30.507 13.6997 31.1329 16.17 31.1329C24.0706 31.1329 30.4755 24.7286 30.4755 16.8286C30.4755 8.92854 24.0706 2.52429 16.17 2.52429Z" fill="black"/>
</g>
<defs>
<clipPath id="clip0_91_985">
<rect width="33" height="33" fill="white"/>
</clipPath>
</defs>
</svg>
