<svg width="30" height="30" viewBox="0 0 30 30" fill="none" xmlns="http://www.w3.org/2000/svg">
<path d="M22.1875 3.75C24.4311 3.75 26.25 5.56884 26.25 7.8125V22.1875C26.25 24.4311 24.4311 26.25 22.1875 26.25H7.8125C5.56884 26.25 3.75 24.4311 3.75 22.1875V7.8125C3.75 5.56884 5.56884 3.75 7.8125 3.75H22.1875ZM22.9131 24.2517L15.6559 17.1435C15.3245 16.8191 14.8126 16.7895 14.4485 17.055L14.344 17.1435L7.08556 24.2514C7.313 24.3314 7.55766 24.375 7.8125 24.375H22.1875C22.4419 24.375 22.6861 24.3316 22.9131 24.2517ZM22.1875 5.625H7.8125C6.60438 5.625 5.625 6.60438 5.625 7.8125V22.1875C5.625 22.448 5.67054 22.6979 5.75408 22.9296L13.0323 15.8037C14.0736 14.7841 15.7094 14.7356 16.8073 15.6582L16.9677 15.8039L24.2455 22.9309C24.3293 22.6987 24.375 22.4485 24.375 22.1875V7.8125C24.375 6.60438 23.3956 5.625 22.1875 5.625ZM19.0651 8.125C20.6199 8.125 21.8802 9.38539 21.8802 10.9402C21.8802 12.4949 20.6199 13.7552 19.0651 13.7552C17.5104 13.7552 16.25 12.4949 16.25 10.9402C16.25 9.38539 17.5104 8.125 19.0651 8.125ZM19.0651 10C18.5459 10 18.125 10.4209 18.125 10.9402C18.125 11.4594 18.5459 11.8803 19.0651 11.8803C19.5844 11.8803 20.0052 11.4594 20.0052 10.9402C20.0052 10.4209 19.5844 10 19.0651 10Z" fill="#212121"/>
</svg>
